<?xml version="1.0" encoding="UTF-8" standalone="no"?>
<!-- Created with Inkscape (http://www.inkscape.org/) -->

<svg
   version="1.1"
   id="svg1"
   width="1000"
   height="1000"
   viewBox="0 0 1000 1000"
   xml:space="preserve"
   xmlns="http://www.w3.org/2000/svg"
   xmlns:svg="http://www.w3.org/2000/svg"><defs
     id="defs1" /><g
     id="g1"><path
       style="fill:#0064e0;fill-opacity:1;stroke:#000000;stroke-width:4;stroke-dasharray:none"
       d="m 383.69324,50.700176 c 27.5899,-25.42695 57.30502,-29.288 96.64316,-30.78897 25.72344,3.52311 48.69382,10.71696 68.41994,22.23648 15.07957,11.56078 26.47664,24.96281 37.63096,38.48621 20.27471,29.648644 20.98998,59.297284 23.94698,88.945924 l -20.52598,-5.1315 C 527.83959,120.40835 467.0116,75.331366 383.69324,50.700176 Z"
       id="path61" /><path
       style="fill:#000080;stroke:#000000;stroke-width:4;stroke-dasharray:none"
       d="m 293.51629,144.03854 -29.62513,5.56474 c -18.2458,-7.27348 -28.86486,-20.28548 -29.0994,-32.80815 8.19041,-24.100374 18.1486,-31.112224 28.24354,-36.802194 19.17761,-13.02839 40.48922,-21.48391 64.18986,-24.82008 26.83802,-5.78376 53.82723,-8.69484 81.30716,-2.28231 31.34605,4.69877 55.07002,12.99426 77.51589,24.0503 41.43133,16.63608 98.87998,72.257024 102.22833,86.029054 z"
       id="path18-6" /><path
       style="fill:#f7e8d9;fill-opacity:1;stroke:#000000;stroke-width:4;stroke-dasharray:none"
       d="m 165.11124,177.54909 c -1.91368,15.0534 7.17687,23.91692 17.95579,31.83073 -5.99633,28.94521 3.23516,41.52052 29.38222,35.91159 2.4474,9.69124 6.02924,17.54991 18.77196,10.61025 11.74185,-6.44923 28.9751,-10.82862 38.30788,-11.65669 10.85414,-33.50507 27.58522,-64.56364 21.0553,-101.09202 -17.84443,-10.16138 -67.20234,44.89764 -125.47315,34.39614 z"
       id="path1" /><path
       style="fill:#f7e8d9;fill-opacity:1;stroke:#000000;stroke-width:4;stroke-dasharray:none"
       d="m 482.60524,683.49379 c 17.68791,21.78892 5.33655,42.06882 -11.3302,57.59522 -1.28107,6.7627 9.13888,16.0327 21.24413,12.9825 7.48193,6.7095 16.0618,4.6355 24.78482,1.4163 19.46019,2.5267 29.95771,-9.57 37.53131,-26.4372 -3.97962,-8.9114 -6.2374,-24.4949 -5.19301,-52.87425 -19.04051,-24.4154 -43.09213,-8.11551 -67.03705,7.31743 z"
       id="path35" /><path
       style="display:inline;fill:#f7e8d9;fill-opacity:1;stroke:#000000;stroke-width:4;stroke-dasharray:none"
       d="m 315.25583,427.81896 c -11.80904,13.7236 -15.59347,28.65089 -15.09135,44.22117 -1.08829,2.64348 2.97303,2.96497 16.14424,1.75481 -15.56353,38.48166 -12.917,82.46122 -2.17711,80.15547 12.33922,-16.7839 23.05187,-12.00863 34.46558,-8.91026 51.47504,24.34411 54.44158,52.08249 61.52207,81.86992 7.22545,-0.16633 9.34973,3.93612 12.17988,7.62531 5.25322,24.94267 14.18741,48.02452 29.80796,50.40299 6.2514,-3.90764 -1.67573,-15.11702 1.50268,-17.88517 25.49291,21.61697 50.68058,24.25881 76.78939,15.08085 3.87728,-0.95542 -6.98744,-12.70731 1.3597,-12.35022 6.97625,9.14163 14.10388,12.03783 29.49603,9.14558 19.84324,18.2684 25.96061,94.4814 17.87042,103.75628 -13.42297,15.38843 -23.70789,37.26073 -21.92286,51.34543 1.76144,13.89851 18.4513,0.7317 34.11153,8.63651 16.0247,8.0888 20.41895,5.842 42.9743,-3.85131 12.02911,-5.1696 26.51506,3.57631 27.85265,-34.2922 0.58343,-16.5173 9.52289,-27.48991 8.67784,-39.84201 -2.95818,-43.2397 1.49568,-106.9162 -3.13011,-144.91221 -0.58046,-4.76785 4.49949,-8.32292 8.55349,-9.78703 12.71477,51.4623 31.25103,67.73787 50.80962,64.44964 -7.64861,1.50283 -14.31809,4.8795 -15.60858,10.29502 -8.83798,18.19558 -6.8615,34.63978 -7.82186,51.14298 2.38857,3.0679 6.44985,4.5597 15.04204,1.805 6.43894,3.1414 14.78465,3.3846 22.59827,-4.4715 5.66222,7.6334 18.40625,-13.2389 19.51945,-23.8072 -6.52667,-12.861 -9.15775,-28.37618 -5.19718,-53.13791 l -8.20561,13.14756 8.428,-13.35955 c -0.84354,-23.99988 7.42611,-55.71602 17.09814,-86.68129 -4.48239,-19.06961 -0.3671,-43.74522 -4.96708,-91.15756 -3.17446,-14.78049 -10.08811,-28.14245 -17.61321,-40.75212 -3.4065,-4.4868 -14.38485,-14.48041 -29.70069,-27.62855 l -10.36071,3.79893 c -29.76084,-5.17519 -58.54519,-12.30336 -80.81352,-32.46356 l -3.45357,-12.08749 c -69.55382,127.92 -134.27662,179.92417 -196.2521,188.75595 l -37.46316,-48.04099 z"
       id="path32" /><path
       style="fill:#00a0f0;stroke:#000000;stroke-width:4;stroke-dasharray:none"
       d="m 303.40809,382.72384 c 11.51922,53.37656 38.69032,97.8092 90.29679,128.27877 9.41129,16.32043 17.90877,32.82361 36.54869,47.29831 55.63459,-9.68062 81.62708,-35.05412 105.34625,-61.63114 40.08125,-36.96908 67.12468,-87.88346 91.8042,-128.96341 4.68766,-7.80277 2.0362,-9.78449 0.51989,-18.15783 -46.9222,28.51318 -107.33825,39.31971 -165.42149,51.09133 -44.13491,11.3968 -87.91782,21.33529 -118.96242,-21.49923 z"
       id="path26" /><path
       style="fill:#f7e8d9;fill-opacity:1;stroke:#000000;stroke-width:4;stroke-dasharray:none"
       d="m 266.65221,241.3162 c -7.69453,-13.98422 -1.03823,-27.96843 8.72283,-41.95265 -3.72492,-2.23819 -8.3764,4.41321 -13.48344,0.54482 4.23549,-16.89134 15.17485,-26.21745 18.05254,-34.6054 9.70446,-29.07886 34.85058,-48.35821 75.59786,-57.73682 -7.31726,-8.153814 -7.2607,-15.385904 -5.09624,-22.354504 12.62278,3.67519 21.53557,11.06038 31.35956,17.534374 1.9632,-5.439094 1.67275,-10.673304 -2.91587,-15.516774 12.4748,-5.23278 21.76555,-0.27656 31.35956,3.70919 38.8008,-1.61425 67.33507,11.144634 91.26216,30.353564 7.71639,3.5124 14.01413,8.03811 25.62716,8.76719 26.12819,18.17429 53.72791,35.52543 90.48281,40.12115 10.10675,-0.89458 20.29391,-3.06063 29.22304,-3.3664 12.63635,2.53763 22.48431,7.86365 30.34796,15.17398 31.52039,10.387 64.91016,6.28626 98.79951,-1.686 3.6189,12.24868 -1.2593,23.88255 -4.5881,35.55226 5.978,38.82464 -15.77974,56.09064 -45.89402,68.31614 7.1189,1.18291 6.44583,4.66896 5.26804,8.81498 -29.46977,27.25318 -70.45041,16.53919 -98.99024,-8.86051 2.4298,8.3157 5.98243,18.04608 4.04411,20.04613 -2.10196,2.1689 -15.21009,2.82556 -12.56391,4.3612 11.71481,6.79837 18.42053,12.01024 14.61986,14.08478 -11.85201,6.46926 5.86215,13.4404 -5.22643,23.76752 l -34.11801,18.14995 c -16.57201,8.87685 -49.50558,15.59361 -78.83367,23.85696 -69.84797,15.01161 -132.10617,43.78027 -174.22873,-5.38289 -68.97588,-21.65805 -78.93307,-79.53866 -78.82834,-141.69224 z"
       id="path3" /><ellipse
       style="fill:#e8656a;fill-opacity:1;stroke:none;stroke-width:2.17806;stroke-dasharray:none"
       id="path4"
       cx="582.88068"
       cy="270.51538"
       rx="39.841805"
       ry="25.665176" /><ellipse
       style="fill:#000000;stroke:none;stroke-width:2.1841;stroke-dasharray:none"
       id="path5"
       cx="401.19601"
       cy="-53.56599"
       rx="30.461542"
       ry="34.559162"
       transform="matrix(0.74673846,0.66511779,-0.65850714,0.75257448,0,0)" /><ellipse
       style="fill:#000000;stroke:none;stroke-width:2.37526;stroke-dasharray:none"
       id="path6"
       cx="223.41209"
       cy="498.72275"
       rx="33.673061"
       ry="39.18774"
       transform="matrix(0.75712201,-0.6532735,0.66390783,0.74781441,0,0)" /><ellipse
       style="fill:#ffffff;stroke:none;stroke-width:2.11485;stroke-dasharray:none"
       id="path7"
       cx="274.22025"
       cy="307.79752"
       rx="14.513818"
       ry="9.7071228"
       transform="matrix(0.94660504,-0.32239556,0.25994154,0.96562436,0,0)" /><ellipse
       style="fill:#ffffff;stroke:none;stroke-width:2.07925;stroke-dasharray:none"
       id="path8"
       cx="385.88788"
       cy="365.37454"
       rx="14.609555"
       ry="10.829122"
       transform="rotate(-20.299194)" /><path
       style="fill:#000000;stroke:none;stroke-width:2;stroke-dasharray:none"
       d="m 394.63994,282.94986 c 10.06714,-1.52773 18.58793,-9.38421 26.46304,-25.51793 -12.75888,-11.82744 -38.19789,-13.74068 -50.26654,-0.59582 1.24436,19.94038 15.76998,22.83584 23.8035,26.11375 z"
       id="path9" /><ellipse
       style="fill:#e8656a;fill-opacity:1;stroke:none;stroke-width:1.5306;stroke-dasharray:none"
       id="path2"
       cx="274.03897"
       cy="325.28381"
       rx="30.679182"
       ry="22.332891"
       transform="matrix(0.97969561,-0.20049065,0.02440105,0.99970225,0,0)" /><ellipse
       style="fill:#ffffff;stroke:none;stroke-width:1.89586;stroke-dasharray:none"
       id="path11"
       cx="378.20123"
       cy="-130.00482"
       rx="28.756159"
       ry="19.205215"
       transform="matrix(0.72142187,0.69249584,-0.66237265,0.74917453,0,0)" /><path
       style="fill:#000000;stroke:none;stroke-width:2;stroke-dasharray:none"
       d="m 371.07061,233.25093 c -0.005,1.8962 0.30403,2.5541 2.67085,3.77254 15.40039,-7.87192 31.82219,-6.77596 46.14599,-2.66685 2.2591,-1.79529 2.54954,-1.88193 2.4389,-4.35429 -16.69139,-2.40684 -32.6832,-4.69085 -51.25574,3.2486 z"
       id="path13" /><path
       style="fill:#000000;stroke:none;stroke-width:2;stroke-dasharray:none"
       d="m 439.5253,234.16169 c 18.93531,-0.24168 39.11849,17.52929 58.65685,29.3485 -0.10117,2.95608 -1.50784,3.95389 -3.3124,4.35488 -16.89754,-11.59185 -36.68352,-30.51292 -55.34445,-29.32516 -2.42846,-2.05079 -1.36473,-2.7489 0,-4.37822 z"
       id="path14" /><path
       style="fill:#000000;stroke:none;stroke-width:2;stroke-dasharray:none"
       d="m 611.42578,201.64959 14.81373,15.43583 -9.28342,11.04331 8.37679,13.09135 3.74323,20.41264 -6.68337,-8.81455 -1.66726,-10.67025 -9.09907,-14.07589 8.63515,-10.97599 -12.52595,-12.06202 z"
       id="path15" /><ellipse
       style="fill:#ffffff;stroke:none;stroke-width:2.13833;stroke-dasharray:none"
       id="path17"
       cx="378.4342"
       cy="288.17859"
       rx="25.177505"
       ry="18.803715"
       transform="matrix(0.95674503,-0.29092774,0.31437652,0.94929837,0,0)" /><path
       id="path21"
       style="mix-blend-mode:normal;fill:#ffff00;stroke:#000000;stroke-width:4;stroke-dasharray:none"
       d="m 220.69922,298.18359 c -22.7632,0.46369 -41.94396,10.42175 -60.49805,30.94727 -30.01934,37.20235 -22.75756,60.09016 -13.39258,78.50781 29.39177,40.92486 59.53493,37.8548 84.05079,36.94531 36.8497,-8.44481 56.14671,-35.0673 76.19726,-59.11132 l 96.51953,-11.08399 12.00586,19.39649 24.01367,-0.92383 6.4668,-18.9336 12.92969,-1.38671 4.15625,18.47265 31.86523,-2.76953 5.08008,-21.70508 c 8.3194,-2.00118 17.54572,-4.00273 27.70898,-6.0039 13.94224,-4.57207 33.08169,-2.29373 37.86719,-24.01368 2.17129,-2.69476 -9.15946,-19.93904 -42.94726,-7.85156 -7.87167,10.37251 -20.87996,16.95571 -37.40625,19.85742 -28.15848,6.32159 -57.89822,10.25433 -93.28711,-20.78125 -17.87809,37.56066 -63.82689,28.76847 -101.13477,-2.30859 -15.15102,-13.60648 -33.10313,-24.36586 -70.19531,-27.25391 z m -1.20703,24.77539 a 39.610402,45.001485 25.653171 0 1 11.16015,2.11914 39.610402,45.001485 25.653171 0 1 20.9668,55.45704 39.610402,45.001485 25.653171 0 1 -53.56641,28.35351 39.610402,45.001485 25.653171 0 1 -20.96679,-55.45703 39.610402,45.001485 25.653171 0 1 42.40625,-30.47266 z" /><path
       style="fill:#000000;stroke:none;stroke-width:2;stroke-dasharray:none"
       d="m 392.24574,286.00229 c 0.14951,17.91017 -2.4749,32.25568 -4.9817,36.89127 -5.64727,16.02205 -14.84574,19.22121 -26.68264,23.5686 -9.46603,3.47664 -22.64657,-2.07892 -36.98639,-7.1423 -2.12377,0.98157 -1.53054,3.12757 -1.04544,5.22722 16.36153,5.83718 32.8344,12.62068 47.3934,3.13633 13.8653,-5.41634 18.10239,-13.45855 21.95429,-21.60582 12.39503,9.76104 25.03174,19.16762 41.46922,22.99974 22.64582,4.31666 44.09098,1.77237 64.81744,-4.87873 15.79559,-1.97859 31.34483,-15.46959 33.45416,-30.31784 -0.19749,-14.88174 -6.94939,-15.98333 -13.24113,-17.94619 6.41247,22.7691 0.29201,22.63319 -2.78899,28.05214 -10.47246,15.85026 -25.957,14.70734 -40.77226,18.81796 -21.54895,4.73677 -40.33021,2.43407 -57.15086,-6.62113 -18.93572,-8.30798 -21.69132,-21.0038 -20.21189,-34.84809 l 1.04545,-16.03012 c -2.09089,-0.77499 -4.18177,-0.44424 -6.27266,0.69696 z"
       id="path23" /><path
       style="fill:#000000;stroke:none;stroke-width:4;stroke-dasharray:none"
       d="m 634.44021,255.95881 13.74966,9.67753 -16.52659,11.26582 -3.44385,-3.91742 12.5318,-7.54651 -8.26973,-5.351 z"
       id="path24" /><path
       style="fill:#f7e8d9;fill-opacity:1;stroke:#000000;stroke-width:4;stroke-dasharray:none"
       d="m 719.36169,408.50701 c 28.11229,28.09108 54.95666,46.05896 83.00996,43.9998 18.3658,-1.27954 32.3452,-9.02868 37.42271,-30.84479 -2.92991,-4.39786 -9.50501,-4.04833 -10.20641,-7.71173 28.01814,-9.37102 29.92704,-47.14648 31.75244,-62.14404 -1.62,-14.00849 -13.4194,-16.46241 -29.10034,-9.92056 5.6428,-3.79585 7.83041,-16.66 2.5404,-29.54318 -0.399,-1.55925 -0.6501,-4.36114 -15.5666,2.17202 -13.9564,-43.30017 -34.4247,-41.482 -55.85237,-33.01723 12.39447,32.3472 20.89507,62.45042 1.81442,76.65943 z"
       id="path33" /><path
       style="fill:#009cf0;stroke:#000000;stroke-width:4;stroke-dasharray:none"
       d="m 627.56765,366.55501 c 0.59278,4.60442 0.91946,9.07578 3.54778,14.69797 23.76374,20.60235 51.03986,29.26262 80.07858,31.93006 32.52812,-9.87635 60.39154,-24.41736 73.99664,-53.21678 -16.3727,0.0809 -32.81942,0.60588 -47.13483,-11.657 -13.61169,-17.60543 -27.6977,-34.47782 -52.70996,-34.4642 -17.82148,3.36891 -32.61841,13.29102 -44.0939,30.40958 z"
       id="path27" /><path
       style="fill:#f7e8d9;fill-opacity:1;stroke:#000000;stroke-width:4;stroke-dasharray:none"
       d="m 314.02241,553.55842 c -16.45002,39.49684 -13.59928,60.96717 -12.18226,85.1494 5.84281,20.18742 13.60849,37.10597 26.5914,45.15521 19.78828,15.99428 29.06314,34.18778 31.10692,43.64998 28.13984,15.5387 30.0617,-18.0429 29.68499,-12.4504 7.82258,16.0827 20.63138,0.1903 22.86605,-3.5782 9.90693,3.0126 20.92327,-10.2783 20.19901,-33.64208 -5.99426,-8.42169 -12.983,-21.29088 -22.13493,-50.96987 -7.61922,-42.07764 -22.33402,-57.08716 -33.33153,-64.92925 -21.88374,-15.60483 -32.73809,-19.40275 -46.99389,-20.74892 -5.41575,2.50256 -10.8536,4.76203 -15.80576,12.36413 z"
       id="path34" /><path
       style="fill:none;stroke:#000000;stroke-width:4;stroke-dasharray:none"
       d="m 491.33894,753.36341 c 4.46043,-7.4216 5.67242,-16.1426 7.08138,-24.7848 -1.26548,8.8091 -3.30669,17.2303 -7.08138,24.7848 z"
       id="path38" /><path
       style="fill:none;stroke:#000000;stroke-width:4;stroke-dasharray:none"
       d="m 515.50387,755.83571 c 3.69048,-5.4067 6.54073,-12.9058 6.67258,-17.1262 -0.0981,5.5509 -3.64904,12.7455 -6.67258,17.1262 z"
       id="path40" /><path
       style="fill:none;stroke:#000000;stroke-width:4;stroke-dasharray:none"
       d="m 512.40955,618.70969 c -2.46112,-7.35488 -5.32758,-18.71258 -5.75778,-33.68342"
       id="path43" /><path
       style="fill:none;stroke:#000000;stroke-width:4;stroke-dasharray:none"
       d="m 518.82443,595.42087 c -0.2378,7.28784 1.4853,14.37958 6.46129,21.14604"
       id="path44" /><path
       style="fill:none;stroke:#000000;stroke-width:4;stroke-dasharray:none"
       d="m 535.27367,627.27302 c -1.70153,15.88631 12.93656,34.832 27.24309,52.37432"
       id="path45" /><path
       style="fill:none;stroke:#000000;stroke-width:4;stroke-dasharray:none"
       d="m 668.32134,588.41465 c 0.10038,14.60537 -1.72583,22.61713 -0.63356,32.52276"
       id="path46" /><path
       style="fill:none;stroke:#000000;stroke-width:4;stroke-dasharray:none"
       d="m 681.20373,545.33255 c 4.74615,26.91335 3.48632,49.32221 -5.27967,66.10146"
       id="path47" /><path
       style="fill:none;stroke:#000000;stroke-width:4;stroke-dasharray:none"
       d="m 597.40562,844.25613 c -13.41854,-8.59611 -11.43893,-27.19191 -3.71683,-44.39951"
       id="path48" /><path
       style="fill:none;stroke:#000000;stroke-width:4;stroke-dasharray:none"
       d="m 631.06312,839.01152 c -16.37043,-7.1613 -11.84772,-20.7712 -10.06979,-33.722"
       id="path49" /><path
       style="fill:none;stroke:#000000;stroke-width:4;stroke-dasharray:none"
       d="m 388.90087,715.16311 c -1.6017,-5.7377 -3.94769,-12.0136 -6.17727,-19.0071"
       id="path50" /><path
       style="fill:none;stroke:#000000;stroke-width:4;stroke-dasharray:none"
       d="m 411.70926,711.12411 c 0.2494,-10.9346 -4.02031,-15.4133 -8.07797,-20.195"
       id="path51" /><rect
       style="fill:#f7e8d9;fill-opacity:1;stroke:none;stroke-width:4;stroke-dasharray:none"
       id="rect51"
       width="40.827366"
       height="52.395119"
       x="339.61255"
       y="529.289" /><path
       style="fill:none;stroke:#000000;stroke-width:4;stroke-dasharray:none"
       d="m 720.23626,737.34271 c -0.37788,-5.794 1.1966,-11.651 2.83404,-16.4374"
       id="path52" /><path
       style="fill:none;stroke:#000000;stroke-width:4;stroke-dasharray:none"
       d="m 741.20815,734.69761 c -1.83059,-6.0556 -0.29746,-11.6306 1.32255,-17.1932"
       id="path53" /><path
       style="fill:none;fill-opacity:1;stroke:#000000;stroke-width:4;stroke-dasharray:none"
       d="m 389.28731,450.16411 c 12.63921,12.40268 20.73057,11.16184 30.01096,13.48807 25.24156,17.51117 43.71599,20.81138 60.02191,19.5577"
       id="path54" /><path
       style="fill:none;fill-opacity:1;stroke:#000000;stroke-width:4;stroke-dasharray:none"
       d="m 323.19576,383.06095 c 4.90276,18.12888 11.18309,27.99237 17.8717,35.40619 10.03702,5.39523 10.77992,10.79045 15.17408,16.18568"
       id="path55" /><path
       style="fill:none;fill-opacity:1;stroke:#000000;stroke-width:4;stroke-dasharray:none"
       d="m 584.52714,369.57288 c -9.98984,14.56658 -32.05125,31.63073 -68.11476,51.59187 -22.62225,8.29625 -46.05491,12.94566 -70.47517,13.15087"
       id="path56" /><path
       style="fill:none;fill-opacity:1;stroke:#000000;stroke-width:4;stroke-dasharray:none"
       d="m 628.55807,369.03281 c 23.49133,-25.51155 44.14927,-17.73075 64.90347,-11.08108 4.0754,3.38789 6.63693,6.99205 5.80438,11.08108"
       id="path57" /><path
       style="font-size:160px;font-family:Roboto;-inkscape-font-specification:Roboto;fill:#000080;stroke-width:4"
       d="m 304.1008,963.59381 q -6.17188,8.04688 -17.10938,12.1875 -10.9375,4.14063 -24.84375,4.14063 -14.29687,0 -25.3125,-6.48438 -11.01562,-6.48437 -17.03125,-18.51562 -5.9375,-12.10938 -6.17187,-28.20313 v -8.90625 q 0,-25.78125 12.34375,-40.23437 12.34375,-14.53125 34.45312,-14.53125 18.98438,0 30.15625,9.375 11.17188,9.375 13.4375,27.03125 h -19.375 q -3.28125,-20.54688 -23.82812,-20.54688 -13.28125,0 -20.23438,9.60938 -6.875,9.53125 -7.10937,28.04687 v 8.75 q 0,18.4375 7.73437,28.67188 7.8125,10.15625 21.64063,10.15625 15.15625,0 21.5625,-6.875 v -22.26563 h -23.4375 v -15 h 43.125 z m 16.32812,-28.28125 q 0,-12.42187 4.92188,-22.34375 4.92187,-10 13.82812,-15.3125 8.90625,-5.39062 20.46875,-5.39062 17.10938,0 27.73438,11.01562 10.70312,11.01563 11.5625,29.21875 l 0.0781,4.45313 q 0,12.5 -4.84375,22.34375 -4.76562,9.84375 -13.75,15.23437 -8.90625,5.39063 -20.625,5.39063 -17.89062,0 -28.67187,-11.875 -10.70313,-11.95313 -10.70313,-31.79688 z m 18.98438,1.64063 q 0,13.04687 5.39062,20.46875 5.39063,7.34375 15,7.34375 9.60938,0 14.92188,-7.5 5.39062,-7.5 5.39062,-21.95313 0,-12.8125 -5.54687,-20.3125 -5.46875,-7.5 -14.92188,-7.5 -9.29687,0 -14.76562,7.42188 -5.46875,7.34375 -5.46875,22.03125 z m 143.04687,-6.79688 h -45.78125 v 48.20313 H 416.9133 v -113.75 h 72.26562 v 15.9375 h -52.5 v 33.82812 h 45.78125 z m 56.09375,49.76563 q -18.04687,0 -29.29687,-11.32813 -11.17188,-11.40625 -11.17188,-30.3125 v -2.34375 q 0,-12.65625 4.84375,-22.57812 4.92188,-10 13.75,-15.54688 8.82813,-5.54687 19.6875,-5.54687 17.26563,0 26.64063,11.01562 9.45312,11.01563 9.45312,31.17188 v 7.65625 H 517.2258 q 0.85937,10.46875 6.95312,16.5625 6.17188,6.09375 15.46875,6.09375 13.04688,0 21.25,-10.54688 l 10.23438,9.76563 q -5.07813,7.57812 -13.59375,11.79687 -8.4375,4.14063 -18.98438,4.14063 z m -2.26562,-72.42188 q -7.8125,0 -12.65625,5.46875 -4.76563,5.46875 -6.09375,15.23438 h 36.17187 v -1.40625 q -0.625,-9.53125 -5.07812,-14.375 -4.45313,-4.92188 -12.34375,-4.92188 z m 74.6875,-34.21875 v 20.54688 h 14.92187 v 14.0625 H 610.9758 v 47.1875 q 0,4.84375 1.875,7.03125 1.95312,2.10937 6.875,2.10937 3.28125,0 6.64062,-0.78125 v 14.6875 q -6.48437,1.79688 -12.5,1.79688 -21.875,0 -21.875,-24.14063 v -47.89062 h -13.90625 v -14.0625 h 13.90625 v -20.54688 z m 64.14062,91.48438 q 7.10938,0 11.79688,-4.14063 4.6875,-4.14062 5,-10.23437 h 17.89062 q -0.3125,7.89062 -4.92187,14.76562 -4.60938,6.79688 -12.5,10.78125 -7.89063,3.98438 -17.03125,3.98438 -17.73438,0 -28.125,-11.48438 -10.39063,-11.48437 -10.39063,-31.71875 v -1.95312 q 0,-19.29688 10.3125,-30.85938 10.3125,-11.64062 28.125,-11.64062 15.07813,0 24.53125,8.82812 9.53125,8.75 10,23.04688 H 691.9133 q -0.3125,-7.26563 -5,-11.95313 -4.60938,-4.6875 -11.79688,-4.6875 -9.21875,0 -14.21875,6.71875 -5,6.64063 -5.07812,20.23438 v 3.04687 q 0,13.75 4.92187,20.54688 5,6.71875 14.375,6.71875 z m 67.73438,-61.71875 q 9.29687,-10.78125 23.51562,-10.78125 27.03125,0 27.42188,30.85937 v 55.23438 h -18.98438 v -54.53125 q 0,-8.75 -3.82812,-12.34375 -3.75,-3.67188 -11.09375,-3.67188 -11.40625,0 -17.03125,10.15625 v 60.39063 h -18.98438 v -120 h 18.98438 z"
       id="text57"
       aria-label="GoFetch" /><path
       style="fill:none;fill-opacity:1;stroke:#000000;stroke-width:4;stroke-dasharray:none"
       d="m 536.66387,36.106656 c -37.16596,1.46358 -61.9866,12.85045 -78.7268,30.74094"
       id="path62" /><path
       style="fill:none;fill-opacity:1;stroke:#000000;stroke-width:4;stroke-dasharray:none"
       d="m 541.16254,36.856436 c -3.54937,20.80479 -9.14032,40.70221 -19.49425,58.48276"
       id="path63" /><path
       style="fill:none;fill-opacity:1;stroke:#000000;stroke-width:4;stroke-dasharray:none"
       d="m 545.66121,39.855556 c 35.58849,64.177854 33.64248,84.693124 31.49072,104.969054"
       id="path64" /><path
       style="fill:#000080;fill-opacity:1;stroke:#000000;stroke-width:4;stroke-dasharray:none"
       d="m 532.20693,33.317916 c 4.67887,-5.12715 9.92712,-8.16657 16.86944,-4.99441 7.31076,3.74607 4.69578,11.90358 5.85935,18.38174 z"
       id="path65" /></g></svg>
